<?xml version="1.0" encoding="UTF-8" standalone="no"?>
<!-- Created with Inkscape (http://www.inkscape.org/) -->

<svg
   xmlns:dc="http://purl.org/dc/elements/1.1/"
   xmlns:cc="http://creativecommons.org/ns#"
   xmlns:rdf="http://www.w3.org/1999/02/22-rdf-syntax-ns#"
   xmlns:svg="http://www.w3.org/2000/svg"
   xmlns="http://www.w3.org/2000/svg"
   xmlns:sodipodi="http://sodipodi.sourceforge.net/DTD/sodipodi-0.dtd"
   xmlns:inkscape="http://www.inkscape.org/namespaces/inkscape"
   id="svg3821"
   sodipodi:docname="logo.svg"
   inkscape:export-filename="/home/rich/Documents/FishPercolator/Jelly/logo.png"
   viewBox="0 0 48 48"
   sodipodi:version="0.32"
   inkscape:export-xdpi="112.5"
   version="1.0"
   inkscape:output_extension="org.inkscape.output.svg.inkscape"
   inkscape:export-ydpi="112.5"
   inkscape:version="0.91 r13725">
  <defs
     id="defs4244" />
  <sodipodi:namedview
     id="base"
     bordercolor="#666666"
     inkscape:pageshadow="2"
     guidetolerance="10"
     pagecolor="#ffffff"
     gridtolerance="10000"
     inkscape:zoom="7.9195959"
     objecttolerance="10"
     showgrid="false"
     borderopacity="1.0"
     inkscape:current-layer="layer1"
     inkscape:cx="40.455943"
     inkscape:cy="17.409987"
     showguides="true"
     inkscape:guide-bbox="true"
     inkscape:pageopacity="0.0"
     inkscape:document-units="px"
     inkscape:window-width="1855"
     inkscape:window-height="1056"
     inkscape:window-x="65"
     inkscape:window-y="24"
     inkscape:window-maximized="1" />
  <g
     id="layer1"
     inkscape:label="Layer 1"
     inkscape:groupmode="layer">
    <g
       id="g4524"
       transform="matrix(.19162 0 0 .19162 -45.662 -70.664)">
      <path
         id="path3856"
         sodipodi:nodetypes="cccc"
         style="fill-rule:evenodd;stroke:#a40000;stroke-width:7;fill:#ef2929"
         d="m311.43 413.79c20-14.78 37.82 2.79 37.86 16.07l-37.33-7.68-0.53-8.39z" />
      <path
         id="path3858"
         sodipodi:nodetypes="ccccc"
         style="fill-rule:evenodd;stroke:#a40000;stroke-width:7;fill:#ef2929"
         d="m339.64 411.83c13.17-10.52 33.1-4.48 37.5 1.43l-0.71 26.42-35.54-1.25-1.25-26.6z" />
      <path
         id="path3860"
         sodipodi:nodetypes="cccc"
         style="fill-rule:evenodd;stroke:#a40000;stroke-width:7;fill:#ef2929"
         d="m406.43 416.47c-22.65-20.37-42.14 7.24-41.43 13.57l30.71 11.25 10.72-24.82z" />
      <path
         id="path3844"
         sodipodi:nodetypes="cccscc"
         style="fill-rule:evenodd;stroke:#a40000;stroke-width:7;fill:#ef2929"
         d="m310.71 414.51c-51.64-7.11-66.49 108.8-67.85 132.5 7.47 11.86 20.92 13.78 33.93 16.42-2.92-1.9-3.57-7.14-2.21-15.36 3.68-22.35 21.83-119.51 50.42-125.35-3.08-3.48-6.96-6.62-14.29-8.21z" />
      <path
         id="path3848"
         sodipodi:nodetypes="ccscccc"
         style="fill-rule:evenodd;stroke:#a40000;stroke-width:7;fill:#ef2929"
         d="m323.93 423.43c10.4 0.4 20.94 0.36 28.57 10-3.97 4.4-9.08 8.17-10.22 13.44-9.77 45.29-21.13 109.66-15.14 120.14-21.9 8.88-39.64 9.07-51.07-3.93-3.12-2.84-2.76-9.14-2.14-15.72 12.92-53.03 23.41-113.71 50-123.93z" />
      <path
         id="path3850"
         sodipodi:nodetypes="ccccsc"
         style="fill-rule:evenodd;stroke:#a40000;stroke-width:7;fill:#ef2929"
         d="m348.21 437.01c8.86-10.78 33.91-6.74 35.36 0 19.67 52.54 25.46 118.18 23.93 132.14-21.34 13.51-58.3 13.39-81.43 0-0.8-32.83 7.66-88.69 15.27-119.68 1.42-5.78 4.4-9.88 6.87-12.46z" />
      <path
         id="path3852"
         sodipodi:nodetypes="ccscccc"
         style="fill-rule:evenodd;stroke:#a40000;stroke-width:7;fill:#ef2929"
         d="m404.22 426.65c-8.62-2.11-18.79-4.29-26.42 5.36 3.96 4.39 9.07 8.16 10.21 13.43 9.77 45.3 24.71 111.8 18.71 122.28 22.26 7.1 38.93 2.29 47.5-6.07 3.12-2.83 0.27-9.14-0.35-15.72-12.93-53.03-23.06-109.06-49.65-119.28z" />
      <path
         id="path3854"
         sodipodi:nodetypes="csccscc"
         style="fill-rule:evenodd;stroke:#a40000;stroke-width:7;fill:#ef2929"
         d="m410 415.93c9.89-2.53 25.33 4.89 27.98 9.15 24.11 38.67 42.51 94.02 45.59 114.43 1.45 13.29-14.85 19.49-27.86 22.14 2.92-1.9-0.05-10.24-2.43-18.23-7.61-25.56-18.27-114.86-57.57-119.27 3.38-3.36 6.73-6.72 14.29-8.22z" />
      <path
         id="path4516"
         style="opacity:.45726;stroke:#ffffff;stroke-width:7;fill:none"
         sodipodi:type="inkscape:offset"
         d="m306.03 421.19c-9.29 0.07-17.06 5.26-24.34 14.9-7.28 9.65-13.39 23.46-18.07 38.16-8.87 27.88-12.65 58.44-13.56 70.72 2.6 3.34 5.8 5.46 10.03 7.12 1.95 0.77 4.23 1.33 6.5 1.91 0.02-2.48 0.16-4.93 0.38-7.28 0.03-0.34 0.08-0.67 0.15-1 1.39-5.68 2.77-11.52 4.13-17.34 3.27-16.73 8.15-38.28 15.56-60.07 0.54-1.65 1.02-2.84 1.41-4l0.03-0.09c1.3-3.64 2.6-7.44 4.16-11.16 0.81-2 1.66-4.05 2.62-6.12 1.33-2.88 2.69-5.63 4.19-8.25 0.23-0.41 0.38-0.66 0.5-0.88l0.06-0.06c0.76-1.29 1.51-2.54 2.31-3.75 2.9-4.58 6.06-8.71 9.69-11.94-0.72-0.22-1.43-0.45-2.31-0.65-1.19-0.15-2.33-0.23-3.44-0.22zm105.97 1.53c10.18 6.08 17.25 17.25 23.06 30.5 10.74 23.1 16.59 51.57 20.94 71.44 1.32 5.59 2.62 10.98 3.97 16.59 0.01 0.06 0.02 0.12 0.03 0.19v0.03c1.05 3.53 2.24 7.3 3.06 10.97 3.11-1.06 6-2.32 8.22-3.75 4.26-2.74 5.72-4.72 5.31-8.44-2.74-18.18-21.19-73.99-44.56-111.47 0.47 0.75-0.4-0.42-1.91-1.37-1.5-0.96-3.61-2.04-5.9-2.91-4.48-1.71-9.64-2.35-12.22-1.78zm-86.62 7.81c-3.87 1.83-7.79 5.48-11.6 11.22-0.75 1.17-1.36 2.1-1.87 3-0.02 0.02-0.05 0.04-0.07 0.06-0.11 0.19-0.24 0.48-0.43 0.81-1.28 2.31-2.5 4.64-3.69 7.19-0.75 1.62-1.51 3.57-2.38 5.63-1.34 3.28-2.62 6.71-3.87 10.37-0.01 0.03-0.02 0.07-0.03 0.1-0.48 1.32-0.94 2.62-1.38 3.9-5.61 17.4-10.34 38.01-15.18 58.75-1.33 6.8-2.88 14.43-3.41 17.63-0.61 3.69-0.67 6.52-0.47 7.97 0.09 0.62 0.15 0.76 0.16 0.81l0.03 0.03c0.59 0.48 1.09 1.05 1.5 1.69 4.17 4.11 8.89 6.12 15.22 6.5 5.79 0.34 12.95-0.94 21.03-3.69-0.68-5.51-0.43-12.12 0.28-20.25 0.82-9.38 2.32-20.43 4.16-32.16 3.02-23.04 7.1-45.77 11.15-62.28 0.76-3.09 1.94-5.76 3.13-7.97 1.34-2.51 2.82-4.54 4.34-6.31-1.38-0.75-2.8-1.35-4.47-1.78-3.37-0.86-7.57-1.04-12.15-1.22zm65.74 1.38c-0.72 0.06-1.29 0.35-1.93 0.5 0.34 0.63 0.6 1.37 0.84 2.15l0.09-0.03c0.17 0.45 0.2 0.54 0.29 0.81 1.85 2.31 3.66 5.02 4.43 8.63 1.07 4.93 2.29 10.65 3.44 15.97 7.45 26.32 12.05 53.14 14.41 74.03l0.03 0.06v0.06c1.73 11.71 2.78 21.03 2.12 28.47 16.46 3.72 27.89-0.12 33.75-5.31 0-0.29 0.03-0.42-0.06-1.06-0.27-1.88-1.03-5.07-1.47-8.6-0.22-0.9-0.4-1.72-0.59-2.5l-0.03-0.21c-0.01-0.05-0.02-0.12-0.03-0.16-0.03-0.1-0.05-0.21-0.07-0.31-1.28-4.49-2.6-10.24-4.03-16.75-6.14-26.01-12.24-51.01-20.06-68.82-5.92-12.72-13.16-21.89-20.84-25.62-3.84-0.91-7.47-1.57-10.29-1.31zm-25.28 5.71c-3.55 0.05-7.03 0.66-9.37 1.82-2.95 3.12-5.63 5.64-6.66 7.34-0.39 0.66-0.6 1.17-0.69 1.56-4.27 19.8-8.66 43-11.93 63.94-2.42 18.42-3.95 36.41-4.03 50.88 0.01 0.04 0.16 0.55 0.06 0.37 0.29 0.5 0.52 1.04 0.69 1.59 19.48 8.98 48.72 8.83 66.37-0.15 0.1-0.23 0.22-0.44 0.34-0.66 0.11-5.87-0.38-15.62-1.81-28.37v-0.03c0-0.02 0.01-0.05 0-0.07-3.11-20.92-8.85-48.17-14.19-72.84-0.01-0.04-0.01-0.08-0.03-0.12-2-7.04-4.23-13.93-6.65-20.63-0.98-1.05-2.15-2.24-3.38-3.5-2.27-0.71-5.39-1.16-8.72-1.13z"
         inkscape:original="M 305.96875 414.1875 C 258.14145 414.5491 244.16822 524.04298 242.84375 547 C 250.24143 558.74059 263.49551 560.73949 276.375 563.34375 C 276.27845 563.23681 276.15816 563.17129 276.0625 563.0625 C 272.94293 560.22966 273.3144 553.95048 273.9375 547.375 C 275.33277 541.64924 276.70072 535.79945 278.0625 529.96875 C 281.295 513.42818 286.1789 491.89269 293.4375 470.5625 C 293.88571 469.17362 294.38314 467.91251 294.84375 466.5625 C 296.16211 462.87745 297.44202 459.17681 298.875 455.75 C 299.69352 453.74689 300.51244 451.74013 301.375 449.875 C 302.64047 447.13864 303.94077 444.55969 305.3125 442.15625 C 305.47578 441.86183 305.64806 441.57067 305.8125 441.28125 C 306.50764 440.09689 307.21262 438.96618 307.9375 437.875 C 313.11774 429.70294 318.7959 423.98549 325 422.71875 C 321.9161 419.23487 318.04805 416.09703 310.71875 414.5 C 309.10476 414.27797 307.51157 414.17584 305.96875 414.1875 z M 307.9375 437.875 C 307.22316 439.0019 306.50648 440.05979 305.8125 441.28125 C 305.64573 441.56538 305.47761 441.86695 305.3125 442.15625 C 303.96675 444.58279 302.64167 447.14606 301.375 449.875 C 300.50872 451.74132 299.70366 453.76837 298.875 455.75 C 297.4755 459.17489 296.13162 462.78785 294.84375 466.5625 C 294.36956 467.88793 293.89663 469.21331 293.4375 470.5625 C 287.67977 488.40421 282.90168 509.24891 278.0625 529.96875 C 276.7426 536.72265 275.15346 544.47613 274.5625 548.0625 C 273.20827 556.28095 273.86856 561.5374 276.78125 563.4375 C 276.64473 563.40973 276.51161 563.37137 276.375 563.34375 C 287.62606 575.80622 304.87399 575.75618 326.09375 567.375 C 326.07648 566.21215 326.12088 564.90167 326.125 563.6875 C 324.42929 554.88665 326.64217 534.44521 330.28125 511.1875 C 333.27632 488.36644 337.38554 465.57578 341.34375 449.46875 C 341.93677 447.05561 342.82667 444.9958 343.8125 443.15625 C 345.18747 440.59057 346.77525 438.50701 348.21875 437 C 349.36001 435.61234 350.78143 434.48452 352.375 433.5625 C 352.41478 433.51881 352.46044 433.48131 352.5 433.4375 C 344.86937 423.79357 334.34377 423.82931 323.9375 423.4375 C 317.82261 425.78735 312.57458 430.89467 307.9375 437.875 z M 352.375 433.5625 C 349.42272 436.80464 345.8878 439.71216 343.8125 443.15625 C 343.11141 444.31975 342.56545 445.55789 342.28125 446.875 C 337.98094 466.80437 333.5825 490.08885 330.28125 511.1875 C 327.81032 530.01486 326.17607 548.6492 326.125 563.6875 C 326.38711 565.04785 326.70708 566.21471 327.15625 567 C 326.79515 567.14647 326.45258 567.23327 326.09375 567.375 C 326.10209 567.93676 326.04902 568.60715 326.0625 569.15625 C 349.18999 582.54629 386.15715 582.6658 407.5 569.15625 C 407.53097 568.87393 407.50633 568.26157 407.53125 567.9375 C 407.25329 567.85204 406.99848 567.80795 406.71875 567.71875 C 407.12081 567.01581 407.4035 566.02805 407.625 564.84375 C 407.76126 558.46428 407.26299 548.29521 405.78125 535.0625 C 407.76642 548.45644 408.67358 559.23728 407.625 564.84375 C 407.60194 565.92339 407.59453 567.11475 407.53125 567.9375 C 429.36799 574.65106 445.75123 569.90892 454.21875 561.65625 C 457.3383 558.82343 454.4981 552.51298 453.875 545.9375 C 453.67107 545.10062 453.48387 544.27568 453.28125 543.4375 C 455.65821 551.42041 458.63143 559.75613 455.71875 561.65625 C 468.72638 559.01025 485.01491 552.79369 483.5625 539.5 C 480.48332 519.09835 462.07952 463.73118 437.96875 425.0625 C 435.31544 420.80715 419.88632 413.40524 410 415.9375 C 402.4442 417.43386 399.09336 420.80159 395.71875 424.15625 C 398.62964 424.48274 401.33049 425.39611 403.9375 426.59375 C 404.0287 426.61597 404.1279 426.63403 404.21875 426.65625 C 414.4341 430.58184 422.20808 441.34926 428.65625 456.03125 C 438.86438 477.98882 444.79386 506.23756 449.15625 526.15625 C 450.48095 531.76364 451.80005 537.28724 453.15625 542.90625 C 451.95307 538.77565 450.617 532.82602 449.15625 526.15625 C 443.00673 500.12565 436.89596 474.79243 428.65625 456.03125 C 422.29102 442.3397 414.25373 431.33293 403.9375 426.59375 C 395.37578 424.50764 385.33146 422.45771 377.78125 432 C 377.94855 432.18527 378.14152 432.34802 378.3125 432.53125 C 381.18547 433.70502 383.18482 435.24721 383.5625 437 C 383.75308 437.50919 383.90577 438.0509 384.09375 438.5625 C 385.94719 440.66808 387.44515 442.86611 388 445.4375 C 389.06172 450.35795 390.28749 456.08412 391.4375 461.40625 C 398.83609 487.43656 403.4271 514.20662 405.75 534.875 C 402.578 513.54011 396.78524 486.155 391.4375 461.40625 C 389.23507 453.65749 386.82567 445.99737 384.09375 438.5625 C 382.30989 436.53597 380.21714 434.57228 378.3125 432.53125 C 371.56889 429.7761 359.9316 429.19037 352.375 433.5625 z "
         inkscape:radius="-7" />
      <path
         id="path4518"
         sodipodi:nodetypes="cccccc"
         style="opacity:.42308;stroke-linejoin:round;stroke:#ffffff;stroke-width:7;fill:none"
         d="m347.14 420.4l-0.53-5c7.72-2.92 11.27-3.29 19.64-0.72-4.26 2.17-6.01 5.77-6.96 9.83l-5.18 1.07-6.97-5.18z" />
      <path
         id="path4520"
         sodipodi:nodetypes="cccccc"
         style="opacity:.42308;stroke-linejoin:round;stroke:#ffffff;stroke-width:4.7354;fill:none"
         d="m326.02 415.24l-4.62-1.19c6.77-0.23 6.19-0.04 12.68 1.47-3.3 1.28 0.92 0.27 0.18 2.67l-5.48-0.49-2.76-2.46z" />
      <path
         id="path4522"
         sodipodi:nodetypes="ccccc"
         style="opacity:.42308;stroke-linejoin:round;stroke:#ffffff;stroke-width:5.4816;fill:none"
         d="m376.68 425.55l-4.45-0.38c6.5-5.93 13.01-12.6 23.94-8.93l-3.78 2.52c-6.28-0.83-12.87 5-15.71 6.79z" />
    </g>
  </g>
  <metadata
     id="metadata4242">
    <rdf:RDF>
      <cc:Work>
        <dc:format>image/svg+xml</dc:format>
        <dc:type
           rdf:resource="http://purl.org/dc/dcmitype/StillImage" />
        <cc:license
           rdf:resource="http://creativecommons.org/publicdomain/zero/1.0/" />
        <dc:publisher>
          <cc:Agent
             rdf:about="http://openclipart.org/">
            <dc:title>Openclipart</dc:title>
          </cc:Agent>
        </dc:publisher>
        <dc:title></dc:title>
        <dc:date>2009-03-29T10:38:27</dc:date>
        <dc:description>Tango Style Jelly</dc:description>
        <dc:source>https://openclipart.org/detail/23485/tango-style-red-jelly-by-rugby471</dc:source>
        <dc:creator>
          <cc:Agent>
            <dc:title>rugby471</dc:title>
          </cc:Agent>
        </dc:creator>
        <dc:subject>
          <rdf:Bag>
            <rdf:li>cartoon</rdf:li>
            <rdf:li>jello</rdf:li>
            <rdf:li>jelly</rdf:li>
            <rdf:li>red</rdf:li>
          </rdf:Bag>
        </dc:subject>
      </cc:Work>
      <cc:License
         rdf:about="http://creativecommons.org/publicdomain/zero/1.0/">
        <cc:permits
           rdf:resource="http://creativecommons.org/ns#Reproduction" />
        <cc:permits
           rdf:resource="http://creativecommons.org/ns#Distribution" />
        <cc:permits
           rdf:resource="http://creativecommons.org/ns#DerivativeWorks" />
      </cc:License>
    </rdf:RDF>
  </metadata>
</svg>
